<?xml version="1.0" encoding="utf-8"?>
<!-- Generator: Adobe Illustrator 24.2.0, SVG Export Plug-In . SVG Version: 6.00 Build 0)  -->
<svg version="1.1" id="Layer_1" xmlns="http://www.w3.org/2000/svg" xmlns:xlink="http://www.w3.org/1999/xlink" x="0px" y="0px"
	 viewBox="0 0 44 44" style="enable-background:new 0 0 44 44;" xml:space="preserve">
<style type="text/css">
	.st0{fill:#1428A0;}
	.st1{fill:#FFFFFF;}
</style>
<path class="st0" d="M39,44H5c-2.8,0-5-2.3-5-5V5c0-2.8,2.3-5,5-5h34c2.8,0,5,2.3,5,5v34C44,41.8,41.8,44,39,44z"/>
<path class="st1" d="M24.5,27.3c0.2,0.5,0.2,1.3,0,1.8c-0.1,0.3-0.2,0.6-0.4,0.8c-0.6,0.9-2.1,1-3.1,0.7c-0.7-0.3-1.3-0.9-1.3-1.7
	c0-0.2,0-0.2,0-0.4v-2.4h-6.5V28c0,5.4,4.3,7.1,8.9,7.1c4.3,0,8-1.4,8.5-5.6c0.2-1.3,0.2-2.7,0-4c-0.2-1.1-0.9-2.1-1.8-2.9
	c-0.9-0.9-2-1.5-3.1-2.2c-1.1-0.6-2.2-1.2-3.3-1.8c-1.4-0.8-3.1-1.8-2.8-3.7c0.1-0.5,0.4-1.1,0.8-1.4c0.2-0.2,0.4-0.3,0.7-0.3
	c1.2-0.3,2.9,0.3,2.9,1.8c0,0.2,0,0.2,0,0.4v1.4h6v-1.6c0-5.3-4.7-6.2-8.1-6.2c-4.3,0-7.8,1.4-8.5,5.4c-0.2,1.1-0.2,2.2,0,3.3
	C14.5,22.7,23.2,24,24.5,27.3z"/>
</svg>
